<svg width="96" height="96" viewBox="0 0 96 96" fill="none" xmlns="http://www.w3.org/2000/svg">
<g clip-path="url(#clip0_1_10)">
<path d="M67.7283 59.9494L50.7363 60.2374V79.1014C57.9363 79.1974 63.3123 79.2454 66.8643 79.2454L67.5123 74.2774C69.4803 74.2774 71.5683 74.8294 73.7763 75.9334V93.4294L69.8163 94.0774C68.7123 91.3894 68.0163 89.3734 67.7283 88.0294C67.5843 88.0294 54.8883 88.2454 29.6403 88.6774L27.7683 94.6534L23.3763 94.0774V75.4294C24.6723 74.6614 26.5683 74.2054 29.0643 74.0614C29.4483 76.5094 29.6883 78.1174 29.7843 78.8854C36.0243 78.9814 40.7043 79.0294 43.8243 79.0294V60.3814L29.6403 60.5974L27.7683 66.5734L23.3763 65.9974L23.3763 47.3494C24.6723 46.5814 26.5683 46.1254 29.0643 45.9814C29.4483 48.4294 29.6883 50.0374 29.7843 50.8054L66.8643 51.1654L67.5123 46.1974C69.4803 46.1974 71.5683 46.7494 73.7763 47.8534V65.3494L69.8163 65.9974C68.7123 63.3094 68.0163 61.2934 67.7283 59.9494Z" fill="url(#paint0_linear_1_10)"/>
<path d="M39.6483 8.89126L39.5763 11.1233L30.9363 13.2113C30.4563 15.9953 30.2163 18.0833 30.2163 19.4753C30.2163 22.2113 30.7683 25.2833 31.8723 28.6913C33.7443 29.6993 36.1443 30.4913 39.0723 31.0673C42.0003 31.6433 44.7603 31.9313 47.3523 31.9313C60.6003 31.9313 67.2243 28.1153 67.2243 20.4833C67.2243 17.2193 66.7443 14.6273 65.7843 12.7073L57.0003 11.1953C57.0003 8.17127 57.1683 5.86727 57.5043 4.28327C62.7363 3.51527 66.9843 3.13127 70.2483 3.13127C71.1123 4.28326 72.0723 6.61126 73.1283 10.1153C74.1843 13.5713 74.7123 16.9793 74.7123 20.3393C74.7123 34.6433 65.8803 41.7953 48.2163 41.7953C39.8163 41.7953 33.4323 40.0673 29.0643 36.6113C24.6963 33.1073 22.5123 27.5393 22.5123 19.9073C22.5123 16.1153 23.0643 12.7553 24.1683 9.82726C25.1283 7.23527 26.1843 5.02727 27.3363 3.20327C30.6003 3.20327 34.5363 3.56327 39.1443 4.28327C39.4803 5.62727 39.6483 7.16327 39.6483 8.89126Z" fill="url(#paint1_linear_1_10)"/>
</g>
<defs>
<linearGradient id="paint0_linear_1_10" x1="34.3643" y1="57.4929" x2="57.599" y2="92.0464" gradientUnits="userSpaceOnUse">
<stop stop-color="#EFD1A5"/>
<stop offset="1" stop-color="#C69346"/>
</linearGradient>
<linearGradient id="paint1_linear_1_10" x1="41.8133" y1="8.21511" x2="51.0025" y2="48.877" gradientUnits="userSpaceOnUse">
<stop stop-color="#EAD7BB"/>
<stop offset="1" stop-color="#C69346"/>
</linearGradient>
<clipPath id="clip0_1_10">
<rect width="96" height="96" fill="white"/>
</clipPath>
</defs>
</svg>
