<svg width="96" height="96" viewBox="0 0 96 96" fill="none" xmlns="http://www.w3.org/2000/svg">
<g clip-path="url(#clip0_1_8)">
<rect x="80.5043" y="2.47436" width="60.6667" height="94" rx="7" transform="rotate(68.3638 80.5043 2.47436)" stroke="url(#paint0_linear_1_8)" stroke-width="6"/>
<path d="M21.9181 55.7709L40.1221 48.6147C38.2484 44.108 36.3596 39.6718 34.4558 35.3062C32.9769 35.5916 31.1453 35.8018 28.9611 35.9366L28.3542 33.9182L42.2973 28.3875C43.4014 29.3266 44.1599 30.3167 44.5728 31.3578C42.7727 32.2439 41.3149 32.9082 40.1995 33.3507L52.1517 65.2729L57.0136 63.8607C57.4266 64.9018 57.553 66.1426 57.3928 67.5832L44.5651 72.6714L43.6235 70.7857C45.1351 69.4976 46.6685 68.373 48.2237 67.4119L41.6273 52.0841L23.2224 59.3846C25.8028 66.1068 27.7492 71.1225 29.0619 74.4317L33.9237 73.0195C34.3367 74.0606 34.4631 75.3014 34.303 76.742L21.4753 81.8302L20.5337 79.9445C22.0452 78.6565 23.5786 77.5318 25.1338 76.5707C19.0396 62.2917 14.4503 51.5898 11.366 44.465C9.88702 44.7504 8.05545 44.9606 5.87128 45.0954L5.2643 43.077L19.2075 37.5463C20.3115 38.4854 21.07 39.4755 21.483 40.5166C19.6829 41.4027 18.2251 42.067 17.1096 42.5095C18.119 45.3795 19.7218 49.8 21.9181 55.7709ZM78.2126 60.1639C67.2812 64.5 59.0943 59.808 53.6521 46.0879C51.0712 39.5811 50.4296 34.1124 51.7273 29.6817C53.0623 25.2363 56.6486 21.8558 62.4861 19.5403C67.171 17.682 71.8516 17.3315 76.5278 18.4889C77.3537 20.571 78.1405 23.3142 78.8884 26.7183C78.4121 27.0363 77.3559 27.5198 75.7199 28.1687L71.3035 21.9166C68.4719 22.4804 66.2567 23.0794 64.6579 23.7136C61.7205 24.8787 59.2986 26.3127 57.3922 28.0156L56.4873 28.8264C56.4117 29.2867 56.3541 29.955 56.3144 30.8314C56.26 31.6706 56.4112 33.3534 56.7678 35.8799C57.1617 38.3917 57.838 40.8559 58.7966 43.2727C60.8762 48.5154 63.3832 52.3405 66.3176 54.7482C69.2893 57.1411 72.6714 57.5853 76.464 56.081C79.1782 55.0044 81.1126 53.9143 82.2671 52.8109C82.5652 52.4775 82.9937 51.9848 83.5527 51.3328L82.0692 44.1755L85.3703 43.0597C87.4472 46.6682 88.9575 49.6622 89.9014 52.0419C89.3566 52.9465 87.9229 54.2682 85.6004 56.0071C83.3151 57.7312 80.8525 59.1168 78.2126 60.1639Z" fill="url(#paint1_linear_1_8)"/>
</g>
<defs>
<linearGradient id="paint0_linear_1_8" x1="170.134" y1="81.4309" x2="76.2048" y2="13.6604" gradientUnits="userSpaceOnUse">
<stop stop-color="#89BDFB"/>
<stop offset="0.0001" stop-color="#89BDFB"/>
<stop offset="1" stop-color="#89BDFB" stop-opacity="0"/>
</linearGradient>
<linearGradient id="paint1_linear_1_8" x1="73.4268" y1="6.7567" x2="48.1481" y2="97.3617" gradientUnits="userSpaceOnUse">
<stop stop-color="#EBD2AD"/>
<stop offset="1" stop-color="#C69346"/>
</linearGradient>
<clipPath id="clip0_1_8">
<rect width="96" height="96" fill="white"/>
</clipPath>
</defs>
</svg>
